<?xml version="1.0" encoding="UTF-8" standalone="no"?><!DOCTYPE svg PUBLIC "-//W3C//DTD SVG 1.1//EN" "http://www.w3.org/Graphics/SVG/1.1/DTD/svg11.dtd"><svg width="100" height="148" viewBox="0 0 100 148" version="1.1" xmlns="http://www.w3.org/2000/svg" xmlns:xlink="http://www.w3.org/1999/xlink" xml:space="preserve" xmlns:serif="http://www.serif.com/" style="fill-rule:evenodd;clip-rule:evenodd;stroke-linejoin:round;stroke-miterlimit:1.41421;"><rect id="Background" x="0" y="0" width="100" height="148" style="fill:#999;"/><g id="Footer"><path id="Footer-12" serif:id="Footer 12" d="M3,123l0,22l94,0l0,-22l-94,0Z" style="fill:#222;fill-opacity:0.5;"/><g><g opacity="0.5"><rect x="6" y="126" width="16" height="2" style="fill:#fff;"/><rect x="6" y="130" width="12.444" height="2" style="fill:#fff;"/><rect x="6" y="134" width="16" height="2" style="fill:#fff;"/><rect x="6" y="138" width="13.333" height="2" style="fill:#fff;"/></g></g><g><g opacity="0.5"><rect x="30" y="126" width="16" height="2" style="fill:#fff;"/><rect x="30" y="130" width="12.444" height="2" style="fill:#fff;"/><rect x="30" y="134" width="16" height="2" style="fill:#fff;"/></g></g></g><path id="Unten-12" serif:id="Unten 12" d="M3,99l0,22l94,0l0,-22l-94,0Z" style="fill:#222;"/><g id="Mitte-6-6" serif:id="Mitte 6-6"><rect x="51" y="27" width="46" height="70" style="fill:#222;"/><rect x="3" y="27" width="46" height="70" style="fill:#222;"/></g><path id="Oben-12" serif:id="Oben 12" d="M3,3l0,22l94,0l0,-22l-94,0Z" style="fill:#222;"/></svg>