<?xml version="1.0" encoding="UTF-8" standalone="no"?><!DOCTYPE svg PUBLIC "-//W3C//DTD SVG 1.1//EN" "http://www.w3.org/Graphics/SVG/1.1/DTD/svg11.dtd"><svg width="100" height="148" viewBox="0 0 100 148" version="1.1" xmlns="http://www.w3.org/2000/svg" xmlns:xlink="http://www.w3.org/1999/xlink" xml:space="preserve" xmlns:serif="http://www.serif.com/" style="fill-rule:evenodd;clip-rule:evenodd;stroke-linejoin:round;stroke-miterlimit:1.41421;"><rect id="Background" x="0" y="0" width="100" height="148" style="fill:#999;"/><g id="Footer"><path id="Footer-12-Home" serif:id="Footer 12 Home" d="M3,123l0,22l94,0l0,-22l-94,0Z" style="fill:#222;"/><g><g opacity="0.5"><rect x="6" y="126" width="16" height="2" style="fill:#fff;"/><rect x="6" y="130" width="12.444" height="2" style="fill:#fff;"/><rect x="6" y="134" width="16" height="2" style="fill:#fff;"/><rect x="6" y="138" width="13.333" height="2" style="fill:#fff;"/></g></g><g><g opacity="0.5"><rect x="30" y="126" width="16" height="2" style="fill:#fff;"/><rect x="30" y="130" width="12.444" height="2" style="fill:#fff;"/><rect x="30" y="134" width="16" height="2" style="fill:#fff;"/></g></g></g><g id="Oben---Mitte---Unten-12" serif:id="Oben - Mitte - Unten 12"><rect x="3" y="3" width="94" height="118" style="fill:#222;"/></g><g id="Icons"><g opacity="0.8"><path d="M75.478,61.221l-22.242,-18.273c-1.869,-1.556 -4.608,-1.556 -6.477,0l-22.242,18.273c-0.327,0.274 -0.517,0.681 -0.517,1.108c0,0.339 0.119,0.667 0.337,0.927l0.924,1.11c0.509,0.608 1.427,0.689 2.034,0.181l2.48,-2.037l0,16.82c0.005,1.583 1.306,2.885 2.889,2.889l11.556,0c1.583,-0.004 2.884,-1.306 2.889,-2.889l0,-9.389l5.777,0l0,9.389c0.005,1.583 1.306,2.885 2.889,2.889l11.556,0c1.575,-0.003 2.874,-1.292 2.889,-2.867l0,-16.843l2.485,2.042c0.608,0.508 1.526,0.426 2.034,-0.181l0.924,-1.109c0.218,-0.26 0.337,-0.589 0.337,-0.928c0,-0.43 -0.192,-0.838 -0.522,-1.112Zm-9.605,16.665l-8.653,0l0,-9.389c-0.005,-1.583 -1.306,-2.885 -2.889,-2.889l-8.667,0c-1.583,0.004 -2.884,1.306 -2.889,2.889l0,9.389l-8.666,0l0,-18.934l15.889,-13.056l15.889,13.05l-0.014,18.94Z" style="fill:#fff;fill-rule:nonzero;"/></g></g></svg>