<?xml version="1.0" encoding="UTF-8" standalone="no"?><!DOCTYPE svg PUBLIC "-//W3C//DTD SVG 1.1//EN" "http://www.w3.org/Graphics/SVG/1.1/DTD/svg11.dtd"><svg width="100" height="148" viewBox="0 0 100 148" version="1.1" xmlns="http://www.w3.org/2000/svg" xmlns:xlink="http://www.w3.org/1999/xlink" xml:space="preserve" xmlns:serif="http://www.serif.com/" style="fill-rule:evenodd;clip-rule:evenodd;stroke-linejoin:round;stroke-miterlimit:1.41421;"><rect id="Background" x="0" y="0" width="100" height="148" style="fill:#999;"/><g id="Footer"><path id="Footer-12" serif:id="Footer 12" d="M3,123l0,22l94,0l0,-22l-94,0Z" style="fill:#222;fill-opacity:0.5;"/><g><g opacity="0.5"><rect x="6" y="126" width="16" height="2" style="fill:#fff;"/><rect x="6" y="130" width="12.444" height="2" style="fill:#fff;"/><rect x="6" y="134" width="16" height="2" style="fill:#fff;"/><rect x="6" y="138" width="13.333" height="2" style="fill:#fff;"/></g></g><g><g opacity="0.5"><rect x="30" y="126" width="16" height="2" style="fill:#fff;"/><rect x="30" y="130" width="12.444" height="2" style="fill:#fff;"/><rect x="30" y="134" width="16" height="2" style="fill:#fff;"/></g></g></g><path id="Unten-12" serif:id="Unten 12" d="M3,99l0,22l94,0l0,-22l-94,0Z" style="fill:#222;"/><g id="Mitte"><g id="Mitte-12" serif:id="Mitte 12"><rect x="3" y="51" width="94" height="70" style="fill:#222;"/></g></g><path id="Header-12" serif:id="Header 12" d="M3,3l0,46l94,0l0,-46l-94,0Z" style="fill:#222;fill-opacity:0.5;"/><g id="Icons"><g opacity="0.8"><g><rect x="49" y="42" width="2" height="1" style="fill:#fff;"/><rect x="53" y="42" width="2" height="1" style="fill:#fff;"/><rect x="45" y="42" width="2" height="1" style="fill:#fff;"/></g><g><path d="M86.133,18.745l-0.66,0.659c-0.156,0.156 -0.156,0.409 0,0.565l6.017,6.031l-6.017,6.031c-0.156,0.156 -0.156,0.409 0,0.565l0.66,0.659c0.156,0.156 0.409,0.156 0.565,0l6.972,-6.972c0.156,-0.156 0.156,-0.409 0,-0.566l-6.972,-6.972c-0.156,-0.156 -0.409,-0.156 -0.565,0Z" style="fill:#fff;fill-rule:nonzero;"/><path d="M13.867,33.255l0.66,-0.659c0.156,-0.156 0.156,-0.409 0,-0.565l-6.017,-6.031l6.017,-6.031c0.156,-0.156 0.156,-0.409 0,-0.565l-0.66,-0.659c-0.156,-0.156 -0.409,-0.156 -0.565,0l-6.972,6.972c-0.156,0.157 -0.156,0.409 0,0.566l6.972,6.972c0.156,0.156 0.409,0.156 0.565,0Z" style="fill:#fff;fill-rule:nonzero;"/></g></g></g></svg>